<?xml version="1.0" encoding="utf-8"?>
<!-- Generator: Adobe Illustrator 17.1.0, SVG Export Plug-In . SVG Version: 6.00 Build 0)  -->
<!DOCTYPE svg PUBLIC "-//W3C//DTD SVG 1.1//EN" "http://www.w3.org/Graphics/SVG/1.1/DTD/svg11.dtd">
<svg version="1.1" id="Layer_1" xmlns="http://www.w3.org/2000/svg" xmlns:xlink="http://www.w3.org/1999/xlink" x="0px" y="0px"
	 viewBox="0 0 40 50" enable-background="new 0 0 40 50" xml:space="preserve">
<g>
	<g>
		<path fill="#EC4A2D" d="M40,48c0,1.1-0.9,2-2,2H2c-1.1,0-2-0.9-2-2V2c0-1.1,0.9-2,2-2h29l9,10V48z"/>
		<path fill="#C5371B" d="M31,0h-1v9c0,1.1,0.9,2,2,2h8v-1L31,0z"/>
	</g>
	<g>
		
			<path fill-rule="evenodd" clip-rule="evenodd" fill="#FFFFFF" stroke="#FFFFFF" stroke-width="0.9322" stroke-miterlimit="2.6131" d="
			M11.1,33.9c-3,2.3-5.1,5.5-4.3,6l0,0l-0.7-0.4l0,0C5.7,39,6.6,36.3,11.1,33.9L11.1,33.9L11.1,33.9L11.1,33.9z"/>
		
			<path fill-rule="evenodd" clip-rule="evenodd" fill="#FFFFFF" stroke="#FFFFFF" stroke-width="0.9322" stroke-miterlimit="2.6131" d="
			M33.9,31.4c1.6-3.3-11.2-2.8-20.5,1.5C20.6,30.1,34,28.9,33.9,31.4L33.9,31.4L33.9,31.4L33.9,31.4z"/>
		
			<path fill-rule="evenodd" clip-rule="evenodd" fill="#FFFFFF" stroke="#FFFFFF" stroke-width="0.9322" stroke-miterlimit="2.6131" d="
			M19.4,13.8c0.3-1.8-0.5-1.8-0.8-1.8l0,0l-0.6,0l0,0c-0.3,0-0.6,0.3-0.7,0.8c-0.9,3.3,0.7,11.7,5.2,15.6c4,3.4,10.9,5,11.2,3.3
			c-1.4,0.7-6.8-1-10.5-3.9c-4.3-3.5-6.1-12.2-5.2-14.9c0.1-0.3,0.3-0.6,0.4-0.7C18.9,12.3,19.3,12.8,19.4,13.8L19.4,13.8L19.4,13.8
			L19.4,13.8z"/>
		
			<path fill-rule="evenodd" clip-rule="evenodd" fill="#FFFFFF" stroke="#FFFFFF" stroke-width="0.9322" stroke-miterlimit="2.6131" d="
			M19.4,14.3c-0.4,1.9-0.6,6.5-4.3,14.1c-4,8.1-7,11.9-8.9,11.1l0,0l0.7,0.4l0,0c1.5,0.8,4.4-1.8,9.1-10.8
			C19.5,22.1,19.3,18.5,19.4,14.3L19.4,14.3L19.4,14.3L19.4,14.3z"/>
	</g>
</g>
</svg>
