<?xml version="1.0" encoding="UTF-8" standalone="no"?>
<svg width="285px" height="58px" viewBox="0 0 285 58" version="1.1" xmlns="http://www.w3.org/2000/svg" xmlns:xlink="http://www.w3.org/1999/xlink" xmlns:sketch="http://www.bohemiancoding.com/sketch/ns">
    <!-- Generator: Sketch 3.3.2 (12043) - http://www.bohemiancoding.com/sketch -->
    <title>LOGO GOLD + Markel direct</title>
    <desc>Created with Sketch.</desc>
    <defs>
        <linearGradient x1="1.11022302e-14%" y1="100%" x2="100%" y2="1.11022302e-14%" id="linearGradient-1">
            <stop stop-color="#A29265" offset="0%"></stop>
            <stop stop-color="#C6B17A" offset="36.4419899%"></stop>
            <stop stop-color="#786A34" offset="100%"></stop>
        </linearGradient>
    </defs>
    <g id="EDITORIAL-PAGES" stroke="none" stroke-width="1" fill="none" fill-rule="evenodd" sketch:type="MSPage">
        <g id="ABOUT" sketch:type="MSArtboardGroup" transform="translate(-160.000000, -28.000000)">
            <g id="HEADER-2" sketch:type="MSLayerGroup" transform="translate(-1.000000, 0.000000)">
                <g id="LOGO-GOLD-+-Markel-direct" transform="translate(161.000000, 28.000000)" sketch:type="MSShapeGroup">
                    <path d="M45.6194889,44.2959889 L31.2382536,44.2959889 L31.2382536,5.74330966 L45.6194889,0 L45.6194889,44.2959889 L45.6194889,44.2959889 Z M30.0008449,6.23853746 L15.6196096,11.9803844 L15.6196096,44.2959889 L30.0008449,44.2959889 L30.0008449,6.23853746 L30.0008449,6.23853746 Z M14.3822009,12.4744744 L0.000965594008,18.217459 L0.000965594008,44.2959889 L14.3822009,44.2959889 L14.3822009,12.4744744 L14.3822009,12.4744744 Z M7.65458557,51.6153484 L8.01893637,58 L10.521756,58 L9.81896453,47.4225714 L6.28746538,47.4225714 L5.58338642,51.2520947 C5.48183812,51.7801535 5.40201568,52.3810255 5.3444019,53.0543858 C5.31318103,52.6513123 5.27841964,52.2794445 5.23979588,51.9356943 C5.20133306,51.5943821 5.1572376,51.2774493 5.1079923,50.9842458 L4.5176925,47.4225714 L0.884323179,47.4225714 L0,58 L2.63043901,58 L3.10615499,51.6153484 L4.11005089,58 L6.46078951,58 L7.65458557,51.6153484 L7.65458557,51.6153484 Z M16.7466187,47.4225714 L13.2868954,47.4225714 L10.7708793,58 L13.6943761,58 L13.9251531,56.6558799 L15.8310747,56.6558799 L16.0414133,58 L18.965071,58 L16.7466187,47.4225714 L16.7466187,47.4225714 Z M14.3044706,54.4306867 L14.5901255,52.7728845 L14.7856582,51.492476 C14.7901644,51.4695593 14.7991766,51.4032472 14.8128558,51.2933772 C14.8265351,51.1835072 14.8492265,50.9863587 14.8809302,50.7035572 C14.8989546,50.5619938 14.9160134,50.4311575 14.9321067,50.3121858 C14.9477171,50.1930516 14.9602698,50.085457 14.969443,49.9916774 L15.0577948,50.9909095 C15.0801644,51.1974847 15.0980279,51.3679783 15.1117072,51.503203 C15.1252255,51.6364773 15.1364907,51.7414714 15.1456639,51.8191606 C15.2317627,52.5141373 15.2795596,52.9128225 15.2884109,53.0131033 C15.3020901,53.1325625 15.3112633,53.192861 15.3156084,53.1972493 L15.4987494,54.4306867 L14.3044706,54.4306867 L14.3044706,54.4306867 Z M24.5709879,53.6008104 C25.6514876,53.1140342 26.1922203,52.2290603 26.1922203,50.9499521 C26.1922203,49.7538965 25.7898894,48.8308907 24.9860324,48.1830476 C24.3506716,47.6754676 23.3987568,47.4225714 22.1214369,47.4225714 L19.2257814,47.4225714 L19.2257814,58 L22.040327,58 L22.040327,54.3001754 L22.0198886,53.6008104 C22.0697776,53.7472496 22.1111372,53.8732101 22.1450939,53.9770665 C22.1792116,54.0830358 22.2030296,54.1675512 22.2167088,54.2315879 L23.6150499,58 L26.6740517,58 L24.5709879,53.6008104 L24.5709879,53.6008104 Z M22.0540062,49.6492274 L22.1553936,49.6492274 C22.9745392,49.6492274 23.3852385,50.0441744 23.3852385,50.8327682 C23.3852385,51.2223517 23.2762873,51.5428602 23.0583849,51.791368 C22.8403216,52.043614 22.5702771,52.1694119 22.2437454,52.1694119 L22.0540062,52.1694119 L22.0540062,49.6492274 L22.0540062,49.6492274 Z M32.0409841,52.5255144 L34.186534,47.4225714 L31.2023657,47.4225714 L29.6474375,51.9563356 L29.722271,47.4225714 L26.8934024,47.4225714 L26.8934024,58 L29.722271,58 L29.6474375,53.1232983 L31.5260006,58 L34.5780824,58 L32.0409841,52.5255144 L32.0409841,52.5255144 Z M40.0237107,58 L40.0237107,55.5466152 L37.5622506,55.5466152 L37.5622506,53.8415168 L39.6999148,53.8415168 L39.6999148,51.3476621 L37.5622506,51.3476621 L37.5622506,49.8767689 L40.0237107,49.8767689 L40.0237107,47.4225714 L34.8457128,47.4225714 L34.8457128,58 L40.0237107,58 L40.0237107,58 Z M45.6185233,55.5466152 L43.3495383,55.5466152 L43.3495383,47.4225714 L40.634127,47.4225714 L40.634127,58 L45.6185233,58 L45.6185233,55.5466152 L45.6185233,55.5466152 Z M44.5388283,48.8562453 C44.5388283,47.8601012 45.329006,47.1350565 46.2706211,47.1350565 C47.2083738,47.1350565 48,47.8601012 48,48.8562453 C48,49.8543398 47.2083738,50.5878361 46.2706211,50.5878361 C45.329006,50.5878361 44.5388283,49.8543398 44.5388283,48.8562453 L44.5388283,48.8562453 Z M46.2706211,50.2936574 C47.0451885,50.2936574 47.6578579,49.6818959 47.6578579,48.8562453 C47.6578579,48.0362833 47.0451885,47.4220839 46.2706211,47.4220839 C45.4921914,47.4220839 44.8880514,48.0362833 44.8880514,48.8562453 C44.8880514,49.6818959 45.4921914,50.2936574 46.2706211,50.2936574 L46.2706211,50.2936574 Z M45.909489,49.8543398 L45.6178796,49.8543398 L45.6178796,47.8601012 L46.3592948,47.8601012 C46.8279298,47.8601012 47.0659487,48.0362833 47.0659487,48.4263545 C47.0659487,48.7819693 46.8411263,48.9404357 46.546942,48.980743 L47.1095614,49.8543398 L46.7767533,49.8543398 L46.2572637,48.9911449 L45.909489,48.9911449 L45.909489,49.8543398 L45.909489,49.8543398 Z M46.2706211,48.7310975 C46.5221584,48.7310975 46.7471418,48.7169574 46.7471418,48.4159526 C46.7471418,48.1619187 46.5281129,48.1142976 46.3238897,48.1142976 L45.909489,48.1142976 L45.909489,48.7310975 L46.2706211,48.7310975 L46.2706211,48.7310975 Z" id="LOGO-GOLD-Copy" fill="url(#linearGradient-1)"></path>
                    <path d="M95.04,16.64 L91.4,16.64 L84.12,35.76 L76.84,16.64 L73.2,16.64 L72.12,44 L75.44,44 L76.2,23 L82.4,39.72 L85.8,39.72 L92,23 L92.76,44 L96.12,44 L95.04,16.64 Z M116.16,29.92 C116.16,26.04 114,24.08 109.2,24.08 C106.92,24.08 104.68,24.4 102.52,25.04 L102.72,27.84 C105.08,27.16 107.2,26.84 109.08,26.84 C111.96,26.84 112.88,27.84 112.88,29.92 L112.88,32.8 C112.12,32.76 111.48,32.76 110.92,32.76 C108.04,32.76 106.52,32.84 104.8,33.32 C103.96,33.56 103.28,33.92 102.8,34.36 C101.88,35.28 101.32,36.72 101.32,38.92 C101.32,42.56 103.08,44.4 106.6,44.4 C108.72,44.4 110.8,43.68 112.92,42.28 L113.24,44 L116.16,44 L116.16,29.92 Z M112.88,39.64 C111.04,41 109.2,41.68 107.36,41.68 C105.32,41.68 104.6,40.88 104.6,38.68 C104.6,37.24 105.04,36.32 105.92,35.92 C106.84,35.52 108.36,35.32 110.52,35.32 C111.32,35.32 112.12,35.32 112.88,35.36 L112.88,39.64 Z M131.48,24.04 C129,24.52 126.88,25.48 125.08,26.88 L124.8,24.52 L121.84,24.52 L121.84,44 L125.12,44 L125.12,29.88 C127.08,28.48 129.2,27.64 131.48,27.28 L131.48,24.04 Z M138.36,33.48 L146.8,44 L150.96,44 L142.12,33.4 L150.28,24.52 L146.2,24.52 L138.36,33.36 L138.36,15.6 L135.08,16.16 L135.08,44 L138.36,44 L138.36,33.48 Z M168.96,35.36 L168.96,33.68 C168.96,30.44 168.64,28.48 167.64,26.68 C166.64,24.88 164.64,24.08 161.48,24.08 C158.44,24.08 156.36,24.88 155.2,26.52 C154.08,28.16 153.52,30.56 153.52,33.76 C153.52,36.84 153.68,38.68 154.28,40.56 C154.6,41.48 155.04,42.24 155.64,42.76 C156.8,43.76 158.68,44.44 161.44,44.44 C164,44.44 166.36,44.12 168.48,43.48 L168.28,40.72 C166.2,41.4 164.04,41.72 161.84,41.72 C159.96,41.72 158.68,41.36 157.96,40.6 C157.24,39.84 156.88,38.4 156.88,36.2 L156.88,35.36 L168.96,35.36 Z M156.88,32.16 C156.88,28.32 158.28,26.8 161.48,26.8 C164.52,26.8 165.68,28.16 165.68,31.16 L165.68,32.76 L156.88,32.76 L156.88,32.16 Z M180.52,41.32 C179.8,41.6 179.12,41.72 178.52,41.72 C177.56,41.72 177.08,41.08 177.08,39.76 L177.08,15.6 L173.8,16.16 L173.8,39.28 C173.8,41.2 174,42.56 174.44,43.32 C174.88,44.08 175.84,44.44 177.4,44.44 C178.8,44.44 180.12,44.24 181.28,43.88 L180.52,41.32 Z M206.44,44 L209.28,44 L209.28,15.6 L206,16.16 L206,24.68 C204.44,24.32 202.76,24.12 201,24.12 C197.8,24.12 195.96,24.72 194.88,26.48 C193.88,28.24 193.6,30.28 193.6,34.28 C193.6,38.32 194,41 194.84,42.4 C195.68,43.76 197.44,44.44 200.12,44.44 C202.24,44.44 204.68,43.44 206.16,42.12 L206.44,44 Z M206,39.32 C204.68,40.64 202.48,41.8 200.56,41.8 C199,41.8 198.04,41.28 197.6,40.2 C197.16,39.12 196.96,37.12 196.96,34.28 C196.96,31.92 196.96,30.88 197.24,29.48 C197.36,28.76 197.56,28.24 197.84,27.92 C198.36,27.24 199.24,26.76 200.64,26.76 C202.28,26.76 204.04,27 206,27.52 L206,39.32 Z M215.48,20.84 C215.68,21.12 216.16,21.24 216.96,21.24 C217.76,21.24 218.24,21.12 218.44,20.84 C218.64,20.56 218.72,19.96 218.72,19.04 C218.72,18.12 218.64,17.56 218.44,17.28 C218.24,17 217.76,16.84 216.96,16.84 C216.16,16.84 215.68,17 215.48,17.28 C215.28,17.56 215.2,18.12 215.2,19.04 C215.2,19.96 215.28,20.56 215.48,20.84 L215.48,20.84 Z M218.56,24.52 L215.32,24.52 L215.32,44 L218.56,44 L218.56,24.52 Z M234.24,24.04 C231.76,24.52 229.64,25.48 227.84,26.88 L227.56,24.52 L224.6,24.52 L224.6,44 L227.88,44 L227.88,29.88 C229.84,28.48 231.96,27.64 234.24,27.28 L234.24,24.04 Z M252.4,35.36 L252.4,33.68 C252.4,30.44 252.08,28.48 251.08,26.68 C250.08,24.88 248.08,24.08 244.92,24.08 C241.88,24.08 239.8,24.88 238.64,26.52 C237.52,28.16 236.96,30.56 236.96,33.76 C236.96,36.84 237.12,38.68 237.72,40.56 C238.04,41.48 238.48,42.24 239.08,42.76 C240.24,43.76 242.12,44.44 244.88,44.44 C247.44,44.44 249.8,44.12 251.92,43.48 L251.72,40.72 C249.64,41.4 247.48,41.72 245.28,41.72 C243.4,41.72 242.12,41.36 241.4,40.6 C240.68,39.84 240.32,38.4 240.32,36.2 L240.32,35.36 L252.4,35.36 Z M240.32,32.16 C240.32,28.32 241.72,26.8 244.92,26.8 C247.96,26.8 249.12,28.16 249.12,31.16 L249.12,32.76 L240.32,32.76 L240.32,32.16 Z M259.84,34.24 C259.84,29.96 260.6,28 261.84,27.4 C262.44,27.08 263.36,26.92 264.6,26.92 C266.08,26.92 267.72,27.12 269.44,27.48 L269.72,24.52 C268.24,24.24 266.52,24.08 264.6,24.08 C261.4,24.08 259.24,24.88 258.12,26.48 C257.04,28.08 256.48,30.68 256.48,34.28 C256.48,37.84 256.8,39.92 257.92,41.8 C259.04,43.68 261.2,44.44 264.6,44.44 C266.32,44.44 268.04,44.28 269.68,43.92 L269.36,41.04 C267.56,41.4 266,41.6 264.72,41.6 C262.64,41.6 261.32,41.12 260.72,40.16 C260.12,39.2 259.84,37.24 259.84,34.24 L259.84,34.24 Z M284.28,41 C283,41.44 281.84,41.64 280.76,41.64 C279.04,41.64 278.8,41.12 278.8,39.16 L278.8,27.24 L283.72,27.24 L284.24,24.52 L278.8,24.52 L278.8,19.04 L275.52,19.6 L275.52,24.52 L272.44,24.52 L272.44,27.24 L275.52,27.24 L275.52,39.24 C275.52,42.96 276.44,44.4 280,44.4 C281.48,44.4 282.96,44.2 284.52,43.76 L284.28,41 Z" id="Markel-direct" fill="#B71234"></path>
                </g>
            </g>
        </g>
    </g>
</svg>