<?xml version="1.0" encoding="UTF-8" standalone="no"?>
<svg width="32px" height="32px" viewBox="0 0 32 32" version="1.1" xmlns="http://www.w3.org/2000/svg" xmlns:xlink="http://www.w3.org/1999/xlink" xmlns:sketch="http://www.bohemiancoding.com/sketch/ns">
    <!-- Generator: Sketch 3.4.4 (17249) - http://www.bohemiancoding.com/sketch -->
    <title>Linkedin</title>
    <desc>Created with Sketch.</desc>
    <defs></defs>
    <g id="DESIGN-SYSTEM" stroke="none" stroke-width="1" fill="none" fill-rule="evenodd" sketch:type="MSPage">
        <g id="TYPOGRAPHY" sketch:type="MSArtboardGroup" transform="translate(-1136.000000, -18.000000)" fill="#616365">
            <g id="HEADER" sketch:type="MSLayerGroup">
                <path d="M1152.74756,31.8382222 C1152.75289,31.8293333 1152.76,31.8204444 1152.76533,31.8115556 L1152.76533,31.8382222 L1152.74756,31.8382222 L1152.74756,31.8382222 Z M1168,34 C1168,42.8364444 1160.83644,50 1152,50 C1143.16356,50 1136,42.8364444 1136,34 C1136,25.1635556 1143.16356,18 1152,18 C1160.83644,18 1168,25.1635556 1168,34 L1168,34 Z M1145.78133,38.8746667 L1148.51556,38.8746667 L1148.51556,30.6453333 L1145.78133,30.6453333 L1145.78133,38.8746667 Z M1148.696,28.0995556 C1148.67911,27.2924444 1148.10311,26.6773333 1147.16711,26.6773333 C1146.23111,26.6773333 1145.61956,27.2924444 1145.61956,28.0995556 C1145.61956,28.8897778 1146.21244,29.5217778 1147.13067,29.5217778 L1147.14844,29.5217778 C1148.10311,29.5217778 1148.696,28.8897778 1148.696,28.0995556 L1148.696,28.0995556 Z M1158.38044,34.1564444 C1158.38044,31.6275556 1157.03022,30.4524444 1155.23022,30.4524444 C1153.77689,30.4524444 1153.12889,31.2506667 1152.76533,31.8115556 L1152.76533,30.6453333 L1150.03022,30.6453333 C1150.06667,31.4168889 1150.03022,38.8746667 1150.03022,38.8746667 L1152.76533,38.8746667 L1152.76533,34.2791111 C1152.76533,34.0328889 1152.78222,33.7866667 1152.856,33.6115556 C1153.05333,33.12 1153.50311,32.6106667 1154.25867,32.6106667 C1155.24889,32.6106667 1155.64444,33.3653333 1155.64444,34.472 L1155.64444,38.8746667 L1158.38044,38.8746667 L1158.38044,34.1564444 L1158.38044,34.1564444 Z" id="Linkedin" sketch:type="MSShapeGroup"></path>
            </g>
        </g>
    </g>
</svg>