<?xml version="1.0" encoding="UTF-8" standalone="no"?>
<svg width="32px" height="32px" viewBox="0 0 32 32" version="1.1" xmlns="http://www.w3.org/2000/svg" xmlns:xlink="http://www.w3.org/1999/xlink" xmlns:sketch="http://www.bohemiancoding.com/sketch/ns">
    <!-- Generator: Sketch 3.4.4 (17249) - http://www.bohemiancoding.com/sketch -->
    <title>Twitter</title>
    <desc>Created with Sketch.</desc>
    <defs></defs>
    <g id="DESIGN-SYSTEM" stroke="none" stroke-width="1" fill="none" fill-rule="evenodd" sketch:type="MSPage">
        <g id="TYPOGRAPHY" sketch:type="MSArtboardGroup" transform="translate(-1088.000000, -18.000000)" fill="#616365">
            <g id="HEADER" sketch:type="MSLayerGroup">
                <path d="M1120,34 C1120,42.8364444 1112.83644,50 1104,50 C1095.16356,50 1088,42.8364444 1088,34 C1088,25.1635556 1095.16356,18 1104,18 C1112.83644,18 1120,25.1635556 1120,34 L1120,34 Z M1111.37956,29.744 C1110.87467,29.968 1110.33244,30.1191111 1109.76267,30.1875556 C1110.344,29.8391111 1110.79111,29.2871111 1111.00089,28.6293333 C1110.45689,28.952 1109.85422,29.1866667 1109.21333,29.3128889 C1108.69956,28.7653333 1107.968,28.424 1107.15822,28.424 C1105.60267,28.424 1104.34222,29.6844444 1104.34222,31.2391111 C1104.34222,31.4595556 1104.36711,31.6746667 1104.41511,31.8808889 C1102.07556,31.7635556 1100.00089,30.6426667 1098.61244,28.9395556 C1098.37067,29.3546667 1098.23111,29.8382222 1098.23111,30.3546667 C1098.23111,31.3315556 1098.728,32.1928889 1099.48356,32.6977778 C1099.02222,32.6835556 1098.58844,32.5564444 1098.20889,32.3457778 C1098.208,32.3573333 1098.208,32.3688889 1098.208,32.3813333 C1098.208,33.7448889 1099.17867,34.8835556 1100.46667,35.1413333 C1100.23022,35.2062222 1099.98133,35.2408889 1099.72533,35.2408889 C1099.54311,35.2408889 1099.36711,35.2231111 1099.19556,35.1902222 C1099.55378,36.3084444 1100.59289,37.1226667 1101.82489,37.1448889 C1100.86133,37.9004444 1099.648,38.3502222 1098.32889,38.3502222 C1098.10133,38.3502222 1097.87733,38.3368889 1097.65689,38.3111111 C1098.90311,39.1093333 1100.38311,39.576 1101.97333,39.576 C1107.15111,39.576 1109.98311,35.2862222 1109.98311,31.5653333 C1109.98311,31.4435556 1109.98044,31.3217778 1109.97511,31.2008889 C1110.52533,30.8044444 1111.00267,30.3084444 1111.37956,29.744 L1111.37956,29.744 Z" id="Twitter" sketch:type="MSShapeGroup"></path>
            </g>
        </g>
    </g>
</svg>